<svg id="Layer_1" enable-background="new 0 0 510.089 510.089" height="512" viewBox="0 0 510.089 510.089" width="512" xmlns="http://www.w3.org/2000/svg"><g><path d="m189.766 418.517-25.243-12.962 7.356 52.833c2.57.997 5.236 1.483 7.873 1.483 7.943 0 15.606-4.34 19.484-11.892 5.522-10.75 1.281-23.941-9.47-29.462z"/><path d="m196.097 156.764 10.505-2.353 63.501-38.269c4.574-2.755 9.774-4.269 15.095-4.439-3.303-3.519-6.125-7.52-8.348-11.91l-34.024 23.862h-44.767-18.289c-1.365 0-2.695.146-3.98.416-.265-.013-.527-.034-.794-.034-1.012 0-2.037.092-3.066.284l-48.51 9.025c-11.433-13.144-23.032-26.477-34.518-39.681l33.622-65.604c4.854-9.471 1.11-21.083-8.36-25.937-9.471-4.855-21.083-1.111-25.937 8.359l-39.567 77.207c-3.591 7.007-2.558 15.495 2.61 21.435 10.238 11.769 34.236 39.357 45.092 51.836l25.117 134.998c-7.032 9.944-49.973 70.672-56.353 79.695-7.688 10.871-3.951 26.031 7.871 32.101l23.875 12.26-4.671-33.547c.066-.981-3.865-14.127 6.766-25.716l55.853-53.93-46.083 61.949c-3.369 4.591-4.814 10.315-4.029 15.956l14.829 106.503c1.657 11.905 12.651 20.319 24.681 18.647 11.965-1.666 20.313-12.716 18.647-24.681l-13.604-97.708 63.014-85.534c7.809-10.599 10.656-24.057 7.808-36.91z"/><path d="m266.774 447.979c3.879 7.553 11.541 11.892 19.484 11.892 2.636 0 5.303-.486 7.873-1.483l7.356-52.833-25.242 12.962c-10.751 5.521-14.991 18.712-9.471 29.462z"/><path d="m322.575 115.916c3.329 0 6.713-.426 10.084-1.319 20.972-5.555 33.47-27.059 27.915-48.031-4.662-17.602-20.559-29.234-37.947-29.234-3.329 0-6.713.426-10.083 1.319-20.972 5.555-33.47 27.059-27.915 48.031 4.661 17.602 20.558 29.234 37.946 29.234z"/><path d="m448.502 44.986c-10.191-2.301-20.314 4.234-22.976 14.337l-18.666 70.839c-10.161 1.263-38.564 4.792-48.935 6.08-.101-.024-64.892-12.572-71.739-12.572-3.374 0-6.789.882-9.891 2.751l-66.263 39.519 8.443 37.602 4.13-.925c2.022-.453 3.958-1.229 5.733-2.299l37.263-22.456-19.711 87.438c-2.855 12.666-.07 25.947 7.633 36.399l63.229 85.791-13.534 97.201c-1.645 11.816 6.206 23.137 17.975 25.095 1.227.204 2.446.303 3.646.303 10.742 0 20.113-7.917 21.637-18.859l14.829-106.503c.785-5.64-.66-11.364-4.029-15.956l-49.418-67.4 59.188 59.381c5.901 6.114 8.308 14.314 7.266 22.13l-.5 3.586-4.671 33.547 23.874-12.259c5.641-2.896 9.747-8.097 11.257-14.255 1.511-6.158.275-12.668-3.386-17.846l-56.767-86.519 22.72-115.166c14.384-1.787 22.082-2.744 57.709-7.171 7.813-.971 14.251-6.598 16.257-14.212l22.105-83.891c2.77-10.517-3.708-21.295-14.408-23.71z"/><path d="m152.085 115.808c18.428 1.308 35.797-10.573 40.711-29.126 5.555-20.972-6.943-42.476-27.915-48.031s-42.476 6.943-48.031 27.915c-6.321 23.867 10.661 47.498 35.235 49.242z"/></g></svg>